<svg width="186" height="34" viewBox="0 0 186 34" fill="none" xmlns="http://www.w3.org/2000/svg">
<path d="M53.5631 28.5879L49.5624 21.617H47.259V28.5879H42.4097V7.37207H50.896C52.9165 7.37207 54.634 8.07926 56.0484 9.49365C57.4628 10.908 58.17 12.6255 58.17 14.6461C58.17 15.9392 57.8063 17.1414 57.0789 18.2527C56.3717 19.3438 55.4321 20.1925 54.2602 20.7986L58.7761 28.5879H53.5631ZM47.259 11.9183V17.3738H50.896C51.5628 17.3738 52.1285 17.1111 52.5932 16.5858C53.0782 16.0604 53.3206 15.4139 53.3206 14.6461C53.3206 13.8782 53.0782 13.2317 52.5932 12.7063C52.1285 12.181 51.5628 11.9183 50.896 11.9183H47.259Z" fill="white"/>
<path d="M86.6668 28.5879L85.606 25.2539H77.7259L76.6651 28.5879H71.3612L78.5745 7.37207H84.7574L91.9708 28.5879H86.6668ZM79.1807 20.7077H84.1512L81.666 12.9185L79.1807 20.7077Z" fill="white"/>
<path d="M111.419 23.9204H119.693V28.5879H105.145V24.8296L113.268 12.0395H105.297V7.37207H119.542V11.1303L111.419 23.9204Z" fill="white"/>
<path d="M151.567 25.8298C149.425 27.9514 146.819 29.0122 143.747 29.0122C140.676 29.0122 138.07 27.9514 135.928 25.8298C133.786 23.7082 132.715 21.0916 132.715 17.98C132.715 14.8683 133.786 12.2517 135.928 10.1301C138.07 8.00854 140.676 6.94775 143.747 6.94775C146.819 6.94775 149.425 8.00854 151.567 10.1301C153.709 12.2517 154.78 14.8683 154.78 17.98C154.78 21.0916 153.709 23.7082 151.567 25.8298ZM139.322 22.5262C140.515 23.6981 141.99 24.2841 143.747 24.2841C145.505 24.2841 146.97 23.6981 148.142 22.5262C149.334 21.3543 149.93 19.8389 149.93 17.98C149.93 16.1211 149.334 14.6056 148.142 13.4337C146.97 12.2618 145.505 11.6758 143.747 11.6758C141.99 11.6758 140.515 12.2618 139.322 13.4337C138.151 14.6056 137.565 16.1211 137.565 17.98C137.565 19.8389 138.151 21.3543 139.322 22.5262Z" fill="white"/>
<path d="M180.787 28.5879L176.786 21.617H174.483V28.5879H169.633V7.37207H178.12C180.14 7.37207 181.858 8.07926 183.272 9.49365C184.686 10.908 185.394 12.6255 185.394 14.6461C185.394 15.9392 185.03 17.1414 184.303 18.2527C183.595 19.3438 182.656 20.1925 181.484 20.7986L186 28.5879H180.787ZM174.483 11.9183V17.3738H178.12C178.786 17.3738 179.352 17.1111 179.817 16.5858C180.302 16.0604 180.544 15.4139 180.544 14.6461C180.544 13.8782 180.302 13.2317 179.817 12.7063C179.352 12.181 178.786 11.9183 178.12 11.9183H174.483Z" fill="white"/>
<path fill-rule="evenodd" clip-rule="evenodd" d="M0 17.493C0 8.37636 7.39052 0.98584 16.5072 0.98584C25.6238 0.98584 33.0144 8.37636 33.0144 17.493C33.0144 26.6097 25.6238 34.0002 16.5072 34.0002C7.39052 34.0002 0 26.6097 0 17.493ZM15.0549 15.0569H17.4188C17.7412 15.0569 18.0027 15.3183 18.0027 15.6408V27.3634C18.0027 28.3386 17.2121 29.1292 16.2368 29.1292C15.2616 29.1292 14.471 28.3386 14.471 27.3634V15.6408C14.471 15.3184 14.7324 15.0569 15.0549 15.0569ZM19.1246 12.3192C19.3227 12.3192 19.5069 12.2179 19.6152 12.052C19.7869 11.787 19.5967 11.4372 19.2809 11.4372H13.1946C12.8789 11.4372 12.6887 11.787 12.8604 12.052C12.9686 12.2178 13.1528 12.3192 13.3509 12.3192H14.5048C14.8272 12.3192 15.0874 12.5794 15.0874 12.9018V13.4477C15.0874 14.0824 15.6019 14.5969 16.2366 14.5969C16.8713 14.5969 17.3859 14.0824 17.3859 13.4477V12.9018C17.3859 12.5794 17.6461 12.3192 17.9685 12.3192H19.1246ZM9.19384 8.06545V10.3938C9.19384 10.7163 9.45641 10.9765 9.77882 10.9765H22.6967C23.0191 10.9765 23.2793 10.7162 23.2793 10.3938V8.06545C23.2793 7.74072 23.0191 7.48051 22.6967 7.48051C22.5885 7.48051 22.5009 7.56816 22.5009 7.67628V8.64125C22.5009 8.98214 22.2245 9.26078 21.8814 9.26078H10.5917C10.2509 9.26078 9.97222 8.9821 9.97222 8.64125V7.67391C9.97222 7.56707 9.88561 7.48047 9.77878 7.48047C9.45633 7.48047 9.19384 7.74072 9.19384 8.06545ZM10.2417 9.73287C10.0943 9.73287 9.97226 9.85494 9.97226 10.0023C9.97226 10.152 10.0943 10.2718 10.2417 10.2718H22.2315C22.3812 10.2718 22.5009 10.1521 22.5009 10.0023C22.5009 9.85494 22.3812 9.73287 22.2315 9.73287H10.2417ZM20.8796 7.48047C21.5206 7.48047 22.0403 8.00015 22.0403 8.64121C22.0403 8.72874 21.9689 8.80011 21.8814 8.80011H10.5917C10.5043 8.80011 10.4328 8.72874 10.4328 8.64121C10.4328 8.00015 10.9525 7.48047 11.5936 7.48047H20.8796Z" fill="white"/>
</svg>
