<svg width="60" height="60" viewBox="0 0 60 60" fill="none" xmlns="http://www.w3.org/2000/svg">
<rect x="0.5" y="0.5" width="59" height="59" rx="9.5" fill="#111111" stroke="white"/>
<g clip-path="url(#clip0_2882_2831)">
<path d="M43.0435 20.8425H40.8598C41.1478 20.3866 41.3379 19.8749 41.3921 19.3337C41.5652 17.6042 40.6544 16.0538 39.1037 15.3665C37.6784 14.7347 36.0766 14.9929 34.9232 16.0391L32.1657 18.5381C31.6287 17.9507 30.8568 17.5816 30 17.5816C29.1417 17.5816 28.3685 17.9519 27.8314 18.5411L25.0704 16.0388C23.9152 14.9926 22.314 14.7354 20.8893 15.3668C19.339 16.0542 18.428 17.6052 18.6017 19.3346C18.656 19.8754 18.846 20.3868 19.134 20.8425H16.9565C15.8759 20.8425 15 21.7184 15 22.799V25.7338C15 26.274 15.438 26.712 15.9783 26.712H44.0218C44.562 26.712 45.0001 26.274 45.0001 25.7338V22.799C45 21.7184 44.1241 20.8425 43.0435 20.8425ZM27.0652 20.5164V20.8425H22.4631C21.2471 20.8425 20.2902 19.7089 20.5939 18.4429C20.7277 17.8854 21.1301 17.4102 21.6506 17.1696C22.3653 16.8392 23.157 16.9453 23.7573 17.4886L27.066 20.4876C27.0659 20.4972 27.0652 20.5067 27.0652 20.5164ZM39.4508 19.074C39.3779 20.0908 38.4595 20.8426 37.4401 20.8426H32.9348V20.5165C32.9348 20.505 32.9341 20.4935 32.934 20.482C33.6835 19.8025 35.3095 18.3288 36.1914 17.5294C36.6926 17.0751 37.3939 16.8631 38.0422 17.0564C38.9725 17.3339 39.5188 18.1251 39.4508 19.074Z" fill="white"/>
<path d="M16.9565 28.6694V43.0173C16.9565 44.0979 17.8325 44.9738 18.913 44.9738H28.0435V28.6694H16.9565Z" fill="white"/>
<path d="M31.9565 28.6694V44.9738H41.087C42.1676 44.9738 43.0435 44.0979 43.0435 43.0173V28.6694H31.9565Z" fill="white"/>
</g>
<defs>
<clipPath id="clip0_2882_2831">
<rect width="30" height="30" fill="white" transform="translate(15 15)"/>
</clipPath>
</defs>
</svg>
